<?xml version="1.0" encoding="utf-8"?>
<!-- Generator: Adobe Illustrator 26.1.0, SVG Export Plug-In . SVG Version: 6.00 Build 0)  -->
<svg version="1.1" id="Layer_1" xmlns="http://www.w3.org/2000/svg" xmlns:xlink="http://www.w3.org/1999/xlink" x="0px" y="0px"
	 viewBox="0 0 761 582" style="enable-background:new 0 0 761 582;" xml:space="preserve">
<style type="text/css">
	.st0{display:none;}
	.st1{display:inline;fill:#DFC7A7;stroke:#000000;stroke-miterlimit:10;}
	.st2{display:inline;fill:#DFC7A7;}
	.st3{fill:#DFC7A7;}
	.st4{fill:#E6E6E6;}
	.st5{fill:#99582A;}
	.st6{fill:#3F3D56;}
	.st7{fill:#FFB6B6;}
	.st8{fill:#2F2E41;}
	.st9{fill:#F2F2F2;}
	.st10{fill:#CCCCCC;}
	.st11{fill:#FFFFFF;}
</style>
<g id="Layer_2_00000027591195433760594090000006741515297411517098_" class="st0">
	<path class="st1" d="M25,511"/>
	<path class="st2" d="M11.3,571.6l748.8,0.3c0.7,0,1.2-0.5,1.2-1.2s-0.5-1.2-1.2-1.2l-748.8-0.3c-0.7,0-1.2,0.5-1.2,1.2
		C10.1,570.4,10.1,571,11.3,571.6c3.2,1.6,722,128,740.8-2.1c3.5-24.3-15.8-68.9-32-106.4c-18.6-43-28.8-50.3-28-73
		c1.6-44.1,41.4-52.2,42-94c0.5-31.8-22.5-32.1-33-80c-10.3-47.1,7.3-67.9-10-86c-18.2-19.1-45.2-3.8-64-25c-15-16.9-2.2-31.4-14-53
		c-20.7-37.7-89.1-47.4-139-35c-25.4,6.3-21.5,12.2-45,17c-49.6,10.1-65.9-16.7-121-15c-16.8,0.5-60.2,1.9-86,31
		c-18.6,20.9-10.4,36.4-26.8,48.7c-31.3,23.5-75.7-22.2-109.2-2.7c-31.9,18.5-37.1,86.4-22,133c10.9,33.7,27.6,41.1,24,64
		c-5.4,34.6-46.1,33.7-57,71c-9.9,34,19.8,48.2,11,95c-5,26.2-14.9,24.9-19,53c-5.7,39.1,9.3,70.4,3,73
		C24.2,585.9,20.1,583.8,11.3,571.6z"/>
</g>
<g id="Layer_3">
	<path class="st3" d="M32,452c2.9,19.2,8.5,57.9,40,81c22.1,16.2,49.4,18.4,57,19c29.8,2.4,38.8-7.8,68-6
		c28,1.7,31.3,11.7,56.3,16.9c64.3,13.4,94-42.1,157.7-29.9c9.1,1.7,33.7,7.7,54,13c19,5,32.2,8.9,36,10
		c36.7,10.5,124.6,35.6,178.3-4.4c18-13.4,38.7-39.1,36.7-65.6c-1.3-17.8-11.8-22-25-50c-8.8-18.5-24.4-49.3-18-79
		c9.3-43.7,47.1-42.8,52-84c2.9-24.3-7.1-51.1-21-69c-6.9-8.9-14.6-15.3-19-19c-22.4-18.7-32.4-16.5-44-27
		c-19.1-17.4-7.7-37.8-21.5-77c-2.7-7.8-13.1-41.6-37.5-58c-38.3-25.7-90.8-11.4-149,5c-85.8,24.1-99.6,53.8-146,46
		c-47.4-8-49.4-40.6-94-45c-57.6-5.7-129.7,39.5-132,92c-0.9,20.3,8.8,38,19,51c8.8,4,24.8,12.8,32,30c3.2,7.6,7.7,24.2-11,65
		c-19.4,42.2-33,43.4-50,76C45.3,353.9,23.9,397.9,32,452z"/>
</g>
<g id="Layer_1_00000154420697251956634580000018445515628008817541_">
	<path class="st4" d="M685.2,568.8H525.9l0,0V564c0-8.8,7.2-16,16-16h127.3c8.8,0,16,7.2,16,16V568.8L685.2,568.8z"/>
	<path class="st4" d="M601.8,548.9l4.8-2c-50.7-125.8-45.8-284.5-3-420.6c10.4-32.2,0.7-67.6-24.8-89.9
		c-24.8-22.2-59-27.6-89.4-14.1c-29.9,13.3-34.1,36.5-34.1,59.6h5.2c0-24.6,5.3-43.4,31-54.8c28.4-12.6,60.6-7.6,83.9,13.2
		c23.9,21,33,54.2,23.3,84.5C555.4,262.5,550.8,422.3,601.8,548.9z"/>
	<circle class="st4" cx="459.3" cy="140.6" r="18.3"/>
	<path class="st4" d="M431.2,172.5v-34.6h5.4v34.6c3.7,1.5,5.5,5.7,4,9.3c-1.5,3.7-5.7,5.5-9.3,4c-3.7-1.5-5.5-5.7-4-9.3
		C427.9,174.7,429.4,173.2,431.2,172.5z"/>
	<path class="st5" d="M405.1,111.3c0-16.6,13.5-30,30-30h49.6c16.6,0,30,13.4,30,30s-13.4,30-30,30h-49.6
		C418.6,141.3,405.1,127.8,405.1,111.3z"/>
	<path class="st6" d="M335.2,297.2c5-63.7,30.4-94.1,14.1-113.1c-15.6-18.2-59.6-14.5-87.9,3c-76.2,47.2-104.1,235.3-6.1,327.2
		c93.2,87.3,269.8,59.4,309.1-12.1c9.2-16.7,16.4-45.9,3-63.6c-33.3-44-154.3,35.7-208.1-14.1C327.6,395,332.5,332.2,335.2,297.2z"
		/>
	<path class="st7" d="M393.5,265.6c-3.8,1.8-5.6,6.3-3.9,10.2c0.2,0.4,0.4,0.7,0.6,1.1l-16.4,21.8l8.2,12.2l19.2-32.3
		c2.8-2.2,3.8-6,2.4-9.2c-1.7-3.8-6.1-5.5-9.8-3.8l0,0C393.6,265.5,393.6,265.5,393.5,265.6z"/>
	<path class="st5" d="M393.5,303.2c1.1,0.9-1.9,2.1-5,0.3c-0.9-0.5-1.3-0.8-1.4-0.6c-0.3,0.4,1.2,3,0.8,8.7
		c-0.2,3.5-6,9.9-12.5,16.3c-8.8,8.6-19,16.8-19,16.8l-3.6-2.9L315,311.6l-6.4-8.8c0.6-3.5,1.5-6.9,2.6-10.2
		c1.6-4.6,3.5-9.1,5.7-13.5c1.2-2.4,2.4-4.6,3.5-6.7l20.2,22.3l16.9,18.6c0,0,4.9-7.9,8.7-10.1c0.5-0.3,1-0.5,1.6-0.6
		c3.9-0.2,4.1-2.3-0.4-6.9s1.2-0.3,5.2-1.5s0,0,0.8-3.1s12-9.3,12-9.3l0.5,0.4l8.4,7.4l2.4,2.1c0,0-2.6,7.2-3.4,8.8
		C392.8,302.2,392.4,302.3,393.5,303.2z"/>
	<polygon class="st7" points="615.8,443.5 616.2,432.4 573.4,425.5 572.8,441.9 	"/>
	<path class="st8" d="M608,446.9l-0.4-17.8l7.6,0.3l12.3-16.5c1.6-2.1,4.6-2.5,6.7-1c1.3,0.9,2,2.4,1.9,4l-0.8,21.2l-7.7,3.4
		l7.5,1.7l-0.3,8L608,446.9z"/>
	<path class="st8" d="M375.1,447.9l135.5,3.4c0,0,58.5,3.4,72.2-5.6l14.5-1.8l0.8-21.3c0,0-8.9,0.1-13.9-2.3s-1.6-5.3-6.4-2.4
		s-4.3,3.2-8.1,1.9s-175.8-27.5-175.8-27.5L375.1,447.9z"/>
	<polygon class="st7" points="553.6,438.6 561.5,430.7 534.8,396.6 523.2,408.2 	"/>
	<path class="st8" d="M545.6,431.8l11.8-13.4l5.4,5.4l20.2-3.7c2.6-0.5,5.1,1.2,5.5,3.8c0.3,1.5-0.2,3.1-1.3,4.2l-15,15l-7.9-2.7
		l4.3,6.3l-5.6,5.7L545.6,431.8z"/>
	<path class="st8" d="M321.6,373.7l1.3,31.3c1.6,36.9,42.2,59.2,73.7,39.9c0.6-0.4,1.2-0.7,1.7-1.1c0.9-0.6,11.9-3.2,11.6-8.3
		s2.6-7.5,5.1-6.2s36.4-46.6,36.4-46.6s70.2,35,85.7,43.2c0,0,14.6-22.8,13.5-22.5s-86.8-59.8-86.8-59.8s-14-14.1-31.3-4.8
		c-0.4,1.4-0.1,1.4-0.1,1.4L375.1,387l-8.1-15.4L321.6,373.7z"/>
	<path class="st5" d="M375.6,334.5c-0.1,1.4-0.3,2.9-0.6,4.3c-0.4,2.1-1.1,4-2,5.9c0,0,0,2.1-4,9.2s1,4,4,9.3c3,5.2,0,2.8-3.4,6.2
		c-2,2-2.7,4.9-1.9,7.6c0,0-43.4,0-51.5-3s-9.9-20.1-2.7-21.8c7.2-1.7-2.2-3.4-6.4-7.3c-4.3-3.9,4.3-10.3,4.3-10.3s-3.5-6-3.2-26.4
		c0-1.9,0.2-3.7,0.5-5.6c0.6-3.5,1.5-6.9,2.6-10.2c1.6-4.6,3.5-9.1,5.7-13.5c1.2-2.4,2.4-4.6,3.5-6.7c0.2-0.3,0.4-0.6,0.5-0.9
		c2.2-3.9,4.2-7,5.5-9.1c1-1.6,1.6-2.5,1.6-2.5l7.4-12.8l24.5,11.5l-1.4,18.8l4.2,14.2l1.9,6.5l1.5,5l2.3,7.8c0,0-0.6,0,0.1,1.1
		c3.5,4.6,5.8,10.1,6.6,15.8C375.7,330.1,375.7,332.3,375.6,334.5z"/>
	<path class="st8" d="M446.5,336.5l-0.5-0.1l-58.7-18.9l21.6-71c1.6-5.2,7-8.1,12.2-6.5c0.7,0.2,1.5,0.5,2.1,0.9l37.5,22.2
		c6.1,3.6,8.8,11.1,6.3,17.8L446.5,336.5z"/>
	<path class="st5" d="M446.7,341.1L387.5,322l21.6-71c1.6-5.2,7-8.1,12.2-6.5c0.7,0.2,1.5,0.5,2.1,0.9l39.3,19.6
		c5.9,3.5,5.8,12.5,3,19.9L446.7,341.1z"/>
	<path class="st6" d="M440.8,346.2c-2.8,1.6-6,1.9-9,0.9L394,334.9c-6-2-9.4-8.4-7.6-14.5l19-62.3c1.6-5.2,7-8.1,12.2-6.5
		c0.1,0,0.1,0,0.2,0.1l39.2,12.9c7.7,2.5,11.9,10.9,9.4,18.6c0,0.1-0.1,0.3-0.1,0.4L446,340.2C445,342.7,443.1,344.9,440.8,346.2z"
		/>
	<circle class="st7" cx="358.7" cy="220.2" r="27.1"/>
	<path class="st8" d="M267,247.7c2.5,4.8,6.6,8.6,11.5,10.8c2,0.9,4.1,1.6,6.2,2c0.6-2.4,1.6-4.7,2.9-6.8c-0.4,2.4-0.4,4.8,0,7.2
		c3.3,0.3,6.6-0.1,9.7-1.2c6.2-2.1,11-7,13-13.2c2.2-7.2-0.2-14.9-0.3-22.4c-0.2-7.5,3.4-16.5,10.8-17.4c5.7-0.7,5-0.2,9,3.8
		c-5.7,6.3,8.2,34.4,15.7,33.1c4.2-0.7,7.3-4,8.2-3.9c4.3,10.5-8.6,25.3,1.6,30.2l-0.8-1c-5.3-8.8,10.4-23.7,5.1-32.5
		c-1.5-2.5-3-5.4-2.1-8.1c0.9-2.6,5.3-3.4,6.2-1.1c-1.5-5.4,2.7-11.8,8.3-12.3c5-0.5,4.7,0.9,9.5,2.2c0.6-2.1,1.5-4,2.6-5.8
		c-0.4,2.1-0.4,4.2-0.1,6.3c1.7,0.2,3.5-0.2,4.9-1c4.4-2.6,4.5-9.4,1.5-13.6c-3-4.1-8.1-6.2-13-7.7c0-10.3-27.9-15.3-33-5.7
		c-0.5-7.8-9.5-13-17.1-11.7s-13.8,7.5-17.4,14.4c-3.7,6.9-5.5,14.6-8.2,21.9s-6.6,14.6-13.1,18.9c-6.5,4.3-16.1,4.7-21.5-0.9
		C264.6,237.1,264.6,242.8,267,247.7z"/>
	<path class="st6" d="M294.8,371.7c0.6-0.4,1.2-0.8,1.8-1.1c10.4-5.2,42.6-18.6,67.9-18c48.5,1.1,110.3,54.6,96,90.6
		c-10.9,27.4-65.3,43-105,30.5C299.8,456.2,277.9,385.2,294.8,371.7z"/>
	<path class="st9" d="M93.3,568.9c-15.9-3-29.9-74.5,1.3-109.7c10.7-12.1,24-17.3,41.8-22.2c102.1-28.1,180-1.3,190.5,5.2
		c10.4,6.5,28.8,104.9,5.3,118.8c-13.2,7.8-39.3,11.7-52.2,2.6c-19-13.4,12.9-48.3-1.3-71.8c-16.1-26.6-101.1-35.6-143.7-9.1
		C89.5,511,183.2,585.9,93.3,568.9z"/>
	<path class="st10" d="M199.4,447.4h-60.6c-15-14.3-25.7-28.2-17.1-39.6c0-6.9,5.6-12.4,12.4-12.4H204c6.9,0,12.4,5.6,12.4,12.4
		C219.7,420.9,213.9,434.1,199.4,447.4z"/>
	<path class="st9" d="M188.5,379.7c-1.5,0.1-2.9-1.1-2.9-2.7c0-0.8,0.3-1.6,0.9-2.2l0.2-0.8c0-0.1-0.1-0.1-0.1-0.2
		c-1.6-3.8-6-5.6-9.9-4c-1.8,0.8-3.3,2.2-4,4.1c-2.3,5.5-5.2,11-5.9,16.8c-0.3,2.6-0.2,5.2,0.4,7.7c-5.3-11.7-8.1-24.3-8.1-37.1
		c0-3.2,0.2-6.4,0.5-9.6c0.3-2.6,0.7-5.2,1.2-7.8c2.9-14,9-27.2,17.9-38.3c4.3-2.4,7.8-6,10-10.4c0.8-1.6,1.4-3.3,1.7-5
		c-0.5,0.1-1.8-7.4-1.5-7.8c-0.7-1-1.9-1.5-2.6-2.5c-3.7-5-8.8-4.1-11.4,2.7c-5.7,2.9-5.7,7.6-2.2,12.2c2.2,2.9,2.5,6.8,4.5,9.9
		c-0.2,0.3-0.4,0.5-0.6,0.8c-3.7,4.7-6.8,9.7-9.5,15.1c0.6-6-0.1-12-2.3-17.6c-2.2-5.2-6.2-9.6-9.8-14.1c-4.3-5.4-13.1-3.1-13.8,3.8
		c0,0.1,0,0.1,0,0.2c0.5,0.3,1,0.6,1.6,1c1.7,1.2,2.2,3.5,1.1,5.3c-0.6,0.9-1.5,1.5-2.6,1.6h-0.1c0.2,1.9,0.5,3.8,1,5.7
		c-4.6,17.7,5.3,24.2,19.4,24.5c0.3,0.2,0.6,0.3,0.9,0.5c-2.7,7.6-4.4,15.5-5,23.5c-0.4,4.7-0.3,9.5,0.1,14.2V369
		c-1-5.3-3.8-10-8-13.4c-6.1-5-14.8-6.9-21.4-10.9c-2-1.3-4.7-0.7-6,1.3c-0.6,0.9-0.8,1.9-0.7,2.9c0,0.1,0,0.1,0,0.2
		c1,0.4,1.9,0.9,2.9,1.4c0.5,0.3,1,0.6,1.6,1c1.7,1.2,2.2,3.5,1.1,5.3c-0.6,0.9-1.5,1.5-2.6,1.6h-0.1c-0.1,0-0.1,0-0.2,0
		c1.7,4,4,7.7,7,10.9c2.9,15.5,15.2,16.9,28.3,12.4l0,0c1.4,6.3,3.5,12.4,6.2,18.2H188c0.1-0.2,0.2-0.5,0.2-0.8
		c-2.1,0.1-4.1,0-6.2-0.4c1.7-2,3.3-4.1,5-6.1l0.1-0.1c0.8-1,1.7-2.1,2.5-3.1l0,0C189.6,386,189.2,382.8,188.5,379.7L188.5,379.7z"
		/>
	<path class="st10" d="M264.5,444.2c0.8,2.2,2.9,3.7,5.2,3.6l22.2-0.6c2.4,0,4.4-1.6,5-3.9l3.1-33.6c1.1,0.5,2.3,0.8,3.6,0.7
		c4.5-0.1,8-3.8,7.9-8.3s-3.8-8-8.3-7.9c-0.5,0-1,0-1.5,0.2c-1.1-1.1-2.5-1.8-4.1-1.8l-34.2,0.9c-0.3,0-0.6,0-0.8,0.1
		c-2.9,0.5-4.8,3.3-4.3,6.2c0,0.2,0.1,0.5,0.2,0.7L264.5,444.2z M300.7,407.4l2.2-8c0.3-0.9,0.3-1.9,0-2.8c0.1,0,0.2-0.1,0.3-0.1
		c3.2-0.1,5.8,2.5,5.9,5.7s-2.5,5.8-5.6,5.9C302.6,408.1,301.6,407.9,300.7,407.4L300.7,407.4z"/>
	<path class="st11" d="M262.7,393.6c0.7,4.2,8.9,7.1,18.8,6.6c9.1-0.4,16.5-3.6,17.8-7.4c-0.5-0.1-1-0.2-1.5-0.2l-34.2,0.9
		C263.2,393.5,262.9,393.5,262.7,393.6z"/>
	<path class="st7" d="M426.1,304.4c-4.2,0.2-7.6,3.7-7.5,7.9c0,0.4,0.1,0.8,0.1,1.2l-23.5,13.9l2.8,14.4l30.1-22.5
		c3.4-0.9,5.8-4.1,5.7-7.6c-0.1-4.1-3.5-7.4-7.6-7.3l0,0C426.3,304.4,426.2,304.4,426.1,304.4z"/>
	<path class="st5" d="M406.9,337.5c-0.6-0.8-0.9-1.2-1-1.1c-0.4,0.2,0,3.2-2.6,8.4c-3.6,7.3-41.8,18.4-41.8,18.4l-4.7-8.6L336,316.8
		l-7.1-30.3c-0.2-1.1-0.4-2.1-0.4-3.2c6.4-4.5,13.1-8.4,20.2-11.6c2.8,1.6,5,4.2,6.1,7.2l14.2,39.9l5.7,15.9c0,0,10-7.2,13.7-5.9
		c3.6,1.3,4.7-0.5,2.3-6.5c-2.4-5.9,1.2,0.2,5.3,0.6c4.2,0.4,0,0,2-2.5s14.6-3.9,14.6-3.9l0.3,0.6l4.9,10.1l1.4,2.9
		c0,0-5.2,5.7-6.5,6.8c-1.3,1.1-1.7,1.1-1,2.3C412.3,340.5,409.1,340.4,406.9,337.5z"/>
</g>
<path class="st3" d="M484,611"/>
<path class="st3" d="M166,615"/>
<path class="st3" d="M183,657"/>
</svg>
