<?xml version="1.0" encoding="utf-8"?>
<!-- Generator: Adobe Illustrator 26.1.0, SVG Export Plug-In . SVG Version: 6.00 Build 0)  -->
<svg version="1.1" id="Layer_1" xmlns="http://www.w3.org/2000/svg" xmlns:xlink="http://www.w3.org/1999/xlink" x="0px" y="0px"
	 viewBox="0 0 1440 244" style="enable-background:new 0 0 1440 244;" xml:space="preserve">
<style type="text/css">
	.st0{fill:#FFFFFF;}
</style>
<path class="st0" d="M0,143c15-6.4,34.2-13.4,57-19c38.3-9.3,67.8-9.9,75-10c20.1-0.2,38.2-0.4,61,6c11.6,3.3,14.2,5.4,38.1,14
	c0,0,21.9,7.8,46.8,15.3c94.5,28.3,202.1,17.4,202.1,17.4c18.2-1.9,42.6-4.4,73.9-12.6c58.7-15.3,80.8-36,166.1-38
	c116.9-2.8,123,41.6,254,42c88,0.3,105-19.7,220-28c88-6.4,160.3-0.7,207,5c13,2.3,26,4.7,39,7c0,34,0,68,0,102h-40
	c-40,0-120,0-200,0s-160,0-240,0s-160,0-240,0s-160,0-240,0s-160,0-240,0s-160,0-200,0H0C0,210.3,0,176.7,0,143z"/>
<path class="st0" d="M1090,298"/>
</svg>
